HIERARCHY
ROOT Hips
{
	OFFSET 0.00000 0.00000 0.00000
	CHANNELS 6 Xposition Yposition Zposition Zrotation Yrotation Xrotation 
	JOINT LHipJoint
	{
		OFFSET 0 0 0
		CHANNELS 3 Zrotation Yrotation Xrotation
		JOINT LeftHip
		{
			OFFSET 1.75344 -1.53157 0.77399
			CHANNELS 3 Zrotation Yrotation Xrotation
			JOINT LeftKnee
			{
				OFFSET 2.25415 -6.19323 0.00000
				CHANNELS 3 Zrotation Yrotation Xrotation
				JOINT LeftAnkle
				{
					OFFSET 2.30342 -6.32861 0.00000
					CHANNELS 3 Zrotation Yrotation Xrotation
					JOINT LeftToe
					{
						OFFSET 0.10958 -0.30108 1.49206
						CHANNELS 3 Zrotation Yrotation Xrotation
						End Site
						{
							OFFSET 0.00000 -0.00000 0.77783
						}
					}
				}
			}
		}
	}
	JOINT RHipJoint
	{
		OFFSET 0 0 0
		CHANNELS 3 Zrotation Yrotation Xrotation
		JOINT RightHip
		{
			OFFSET -1.81912 -1.53156 0.77399
			CHANNELS 3 Zrotation Yrotation Xrotation
			JOINT RightKnee
			{
				OFFSET -2.22882 -6.12365 0.00000
				CHANNELS 3 Zrotation Yrotation Xrotation
				JOINT RightAnkle
				{
					OFFSET -2.21943 -6.09785 0.00000
					CHANNELS 3 Zrotation Yrotation Xrotation
					JOINT RightToe
					{
						OFFSET -0.18931 -0.52012 1.59379
						CHANNELS 3 Zrotation Yrotation Xrotation
						End Site
						{
							OFFSET -0.00000 -0.00000 0.84686
						}
					}
				}
			}
		}
	}
	JOINT lowerback
	{
		OFFSET 0 0 0
		CHANNELS 3 Zrotation Yrotation Xrotation
		JOINT Chest
		{
			OFFSET -0.00200 1.66634 -0.14248
			CHANNELS 3 Zrotation Yrotation Xrotation
			JOINT Chest2
			{
				OFFSET -0.00875 1.64542 0.09514
				CHANNELS 3 Zrotation Yrotation Xrotation
				JOINT lowerneck
				{
					OFFSET 0 0 0
					CHANNELS 3 Zrotation Yrotation Xrotation
					JOINT Neck
					{
						OFFSET 0.02257 1.59605 0.00839
						CHANNELS 3 Zrotation Yrotation Xrotation
						JOINT Head
						{
							OFFSET -0.10214 1.57530 -0.23335
							CHANNELS 3 Zrotation Yrotation Xrotation
							End Site
							{
								OFFSET -0.03588 1.60717 -0.08062
							}
						}
					}
				}
				JOINT LeftCollar
				{
					OFFSET 0 0 0
					CHANNELS 3 Zrotation Yrotation Xrotation
					JOINT LeftShoulder
					{
						OFFSET 2.54983 1.10186 0.40078
CHANNELS 3 Zrotation Xrotation Yrotation
						JOINT LeftElbow
						{
OFFSET 0 -4.288400 0.000000
CHANNELS 3 Zrotation Xrotation Yrotation
							JOINT LeftWrist
							{
OFFSET 0 -3.065520 -0.000000
CHANNELS 3 Zrotation Xrotation Yrotation
								JOINT lhand
								{
									OFFSET 0 0 0
CHANNELS 3 Zrotation Xrotation Yrotation
									JOINT LFingers
									{
OFFSET 0 -0.753040 0.000000
CHANNELS 3 Zrotation Xrotation Yrotation
										End Site
										{
OFFSET 0 -0.607120 0.000000
										}
									}
								}
								JOINT LThumb
								{
OFFSET 0 0.000000 0.000000
CHANNELS 3 Zrotation Xrotation Yrotation
									End Site
									{
OFFSET 0 -0.616390 0.616390
									}
								}
							}
						}
					}
				}
				JOINT RightCollar
				{
					OFFSET 0 0 0
					CHANNELS 3 Zrotation Yrotation Xrotation
					JOINT RightShoulder
					{
						OFFSET -2.60909 1.35448 0.21802
CHANNELS 3 Zrotation Xrotation Yrotation
						JOINT RightElbow
						{
OFFSET 0 -4.521720 -0.000000
CHANNELS 3 Zrotation Xrotation Yrotation
							JOINT RightWrist
							{
OFFSET 0 -2.891400 0.000000
CHANNELS 3 Zrotation Xrotation Yrotation
								JOINT rhand
								{
									OFFSET 0 0 0
CHANNELS 3 Zrotation Xrotation Yrotation
									JOINT RFingers
									{
OFFSET 0 -0.680540 0.000000
CHANNELS 3 Zrotation Xrotation Yrotation
										End Site
										{
OFFSET 0 -0.548670 0.000000
										}
									}
								}
								JOINT RThumb
								{
OFFSET 0 0.000000 0.000000
CHANNELS 3 Zrotation Xrotation Yrotation
									End Site
									{
OFFSET 0 -0.557050 0.557050
									}
								}
							}
						}
					}
				}
			}
		}
	}
}
MOTION
Frames: 5
Frame Time: 0.008333333333333333
8.487400 15.534000 22.944600 -179.897000 0.452900 -179.242000 0.000000 0.000000 0.000000 -27.102100 -21.798600 3.799600 1.163700 6.848200 19.266500 1.047800 11.242400 -26.417000 0.980000 -6.301500 -17.661800 0.000000 0.000000 0.000000 28.043200 16.394200 8.007800 -0.526900 -4.651900 12.918300 1.053600 -24.365600 -26.943800 -0.059500 -1.573600 4.328500 0.831800 1.187800 4.406400 -0.103400 1.771500 -4.395000 -0.764900 0.878000 -7.029900 -4.778900 -1.450800 -7.521200 4.579000 -2.561400 15.681100 2.028700 -1.384200 6.096500 -0.000000 0.000000 0.000000 3.733700 13.768900 -41.470400 20.072100 -30.729200 5.568200 4.917000 8.651600 19.458800 0.000000 0.000000 0.000000 -7.125000 0.000000 0.000000 -15.057900 10.957200 -12.367300 -0.000000 0.000000 0.000000 -6.599700 15.714400 55.314500 -19.285600 -29.772000 -5.171900 -49.901800 56.564500 66.524900 0.000000 0.000000 0.000000 7.125000 0.000000 -0.000000 -173.790300 14.416600 4.495100
8.488418 15.523399 22.943413 -179.868165 -0.123625 -179.511689 0.000000 0.000000 0.000000 -27.159600 -21.854573 4.094393 1.174725 6.879494 19.358771 1.034740 11.111202 -26.203877 1.050815 -6.517760 -18.294553 0.000000 0.000000 0.000000 28.263870 16.255115 8.336007 -0.531140 -4.669964 12.969609 1.008143 -24.580164 -27.725391 -0.106738 -2.094915 5.768455 0.830273 1.090101 4.593147 -0.035384 1.454318 -4.290008 -0.652784 0.642912 -7.032020 -4.904331 -1.418403 -7.602446 4.602153 -2.506868 15.783718 2.060842 -1.363761 6.141957 0.000000 0.000000 0.000000 3.606827 13.730567 -41.387543 20.036820 -30.686711 5.550136 4.767568 8.446449 22.873510 0.000000 0.000000 0.000000 -7.125000 0.000000 0.000000 -15.079526 7.666988 -13.414594 0.000000 0.000000 0.000000 -6.639475 15.448951 54.324621 -19.200792 -29.667432 -5.129920 -37.706747 46.932854 65.063064 0.000000 0.000000 0.000000 7.125000 0.000000 0.000000 -171.902050 9.997763 6.667627
8.488948 15.525747 22.947098 -179.840723 0.259159 -179.390137 0.000000 0.000000 0.000000 -27.093462 -21.782314 3.939048 1.174542 6.878904 19.357061 1.031913 11.313743 -26.358884 1.044077 -6.497953 -18.236296 0.000000 0.000000 0.000000 28.198837 16.388089 8.142720 -0.532666 -4.676542 12.988198 0.989975 -24.369514 -27.485923 -0.095916 -1.993027 5.486458 0.778206 1.140545 4.547934 0.009311 1.640808 -4.330095 -0.602417 0.789320 -7.049317 -4.935293 -1.401392 -7.628417 4.614236 -2.482202 15.816162 2.071682 -1.352860 6.155948 0.000000 0.000000 0.000000 3.550893 13.686107 -41.350841 20.009197 -30.653412 5.536040 4.535572 8.349482 26.151285 0.000000 0.000000 0.000000 -7.125000 0.000000 0.000000 -15.201817 4.521996 -14.481798 0.000000 0.000000 0.000000 -6.595780 15.271845 53.233033 -19.135685 -29.586881 -5.097686 -26.838366 38.988143 62.382113 0.000000 0.000000 0.000000 7.125000 0.000000 0.000000 -169.989712 5.347453 9.226871
8.489046 15.531464 22.951086 -179.816850 0.737923 -179.184838 0.000000 0.000000 0.000000 -26.995934 -21.720657 3.674097 1.174090 6.877561 19.353073 1.036653 11.480593 -26.540292 0.996524 -6.351851 -17.809113 0.000000 0.000000 0.000000 28.086694 16.550990 7.843903 -0.535177 -4.687415 13.019131 0.968892 -24.108086 -27.176185 -0.081622 -1.841566 5.067990 0.757287 1.267456 4.446223 0.012343 1.881264 -4.410605 -0.615106 0.939086 -7.073898 -4.880712 -1.406841 -7.631441 4.583250 -2.492463 15.820939 2.051913 -1.357047 6.157520 0.000000 0.000000 0.000000 3.561054 13.672421 -41.380268 19.993206 -30.634200 5.527926 4.219106 8.252939 30.284276 0.000000 0.000000 0.000000 -7.125000 0.000000 0.000000 -15.442569 0.570291 -15.868735 0.000000 0.000000 0.000000 -6.425839 15.072655 51.396879 -19.044564 -29.473910 -5.052776 -13.609539 31.227993 55.222698 0.000000 0.000000 0.000000 7.125000 0.000000 0.000000 -85.767948 -5.236228 -86.551288
8.489078 15.533798 22.951548 -179.821085 0.683476 -179.116194 0.000000 0.000000 0.000000 -26.960443 -21.754770 3.585343 1.173637 6.876228 19.349142 1.035425 11.412393 -26.471341 0.990399 -6.333170 -17.754475 0.000000 0.000000 0.000000 28.061366 16.529109 7.742216 -0.537785 -4.698713 13.051212 0.950938 -24.087970 -27.286930 -0.090588 -1.932357 5.318990 0.770744 1.257568 4.398627 -0.010221 1.870433 -4.444809 -0.644568 0.933613 -7.081905 -4.818483 -1.416559 -7.623131 4.543219 -2.508501 15.819172 2.027576 -1.364416 6.155170 0.000000 0.000000 0.000000 3.589782 13.684822 -41.427220 19.985481 -30.624911 5.524002 3.882372 8.172601 34.768047 0.000000 0.000000 0.000000 -7.125000 0.000000 0.000000 -15.769441 -3.705261 -17.402833 0.000000 0.000000 0.000000 -6.287702 14.967324 50.195009 -18.978536 -29.392014 -5.020316 -5.512121 26.991301 50.135881 0.000000 0.000000 0.000000 7.125000 0.000000 0.000000 -15.899134 -12.706241 -167.484566
